<?xml version="1.0" encoding="utf-8"?>
<!-- Generator: Adobe Illustrator 16.2.1, SVG Export Plug-In . SVG Version: 6.00 Build 0)  -->
<!DOCTYPE svg PUBLIC "-//W3C//DTD SVG 1.1//EN" "http://www.w3.org/Graphics/SVG/1.1/DTD/svg11.dtd">
<svg version="1.1" id="Layer_1" xmlns="http://www.w3.org/2000/svg" xmlns:xlink="http://www.w3.org/1999/xlink" x="0px" y="0px"
	 width="512px" height="512px" viewBox="0 0 512 512" enable-background="new 0 0 512 512" xml:space="preserve">
<g>
	<path d="M362.121,201.146L352,194.854L413.184,144h-46.111c-93.321,0-129.141,14.511-163.181,138.832
		c-1.62,3.008-3.233,6.004-4.846,8.919c-19.836,36.601-40.919,61.242-64.64,15.314C120.513,315.346,101.401,384,64,384v-16.25
		c41.931,0,83.098-13.613,120.966-83.561c1.606-2.965,3.214-5.949,4.821-8.944C224.922,209.911,264.184,128,361.661,128h46.28
		L352,16.146L362.121,64L448,136L362.121,201.146z"/>
	<g>
		<path d="M199.034,220.189c-19.836-36.601-40.919-61.242-64.64-15.314C120.513,136.654,101.401,128,64,128v16.25
			c41.931,0,83.098,13.613,120.966,83.561c1.606,2.964,3.214,5.948,4.821,8.944c0.228,0.812,0.815,1.621,1.314,2.444
			c3.01-5.228,6.101-10.911,9.339-16.394C199.911,221.935,199.504,221.056,199.034,220.189z"/>
		<path d="M362.121,304.854L352,311.146L413.184,368h-46.111c-12.693,0-110.496-45.201-140.028-95.592
			c-1.168,3.215-3.525,6.551-5.213,9.814c-1.115,2.192-2.344,4.31-3.513,6.545C249.621,338.111,291.254,384,361.661,384h46.28
			L352,225.854L362.121,448L448,316L362.121,304.854z"/>
	</g>
</g>
</svg>
