<?xml version="1.0" encoding="utf-8"?>
<!-- Generator: Adobe Illustrator 17.1.0, SVG Export Plug-In . SVG Version: 6.00 Build 0)  -->
<!DOCTYPE svg PUBLIC "-//W3C//DTD SVG 1.1//EN" "http://www.w3.org/Graphics/SVG/1.1/DTD/svg11.dtd">
<svg version="1.1" id="artboard-tool" xmlns="http://www.w3.org/2000/svg" xmlns:xlink="http://www.w3.org/1999/xlink" x="0px"
	 y="0px" viewBox="0 0 1024 1024" enable-background="new 0 0 1024 1024" xml:space="preserve">
<g id="artboard-tool-artboard-tool">
	<rect fill="#80C2B8" width="1024" height="1024"/>
	<g id="artboard-tool-artboard">
		<g>
			<path fill="#FFFFFF" d="M645.333,645.334H378.667V378.666h266.666V645.334L645.333,645.334z M400.8887,623.1113h222.2221
				V400.8887H400.8887V623.1113L400.8887,623.1113z"/>
		</g>
		<g>
			<g>
				<polygon fill="#FFFFFF" points="645.333,356.4443 623.1108,356.4443 623.1108,312 645.333,312 645.333,356.4443 				"/>
			</g>
			<g>
				<polygon fill="#FFFFFF" points="711.9995,400.8887 667.5547,400.8887 667.5547,378.666 711.9995,378.666 711.9995,400.8887 				
					"/>
			</g>
		</g>
		<g>
			<g>
				<polygon fill="#FFFFFF" points="400.8887,356.4443 378.667,356.4443 378.667,312 400.8887,312 400.8887,356.4443 				"/>
			</g>
			<g>
				<polygon fill="#FFFFFF" points="356.4443,400.8887 312,400.8887 312,378.666 356.4443,378.666 356.4443,400.8887 				"/>
			</g>
		</g>
		<g>
			<g>
				<polygon fill="#FFFFFF" points="645.333,712 623.1108,712 623.1108,667.5557 645.333,667.5557 645.333,712 				"/>
			</g>
			<g>
				<polygon fill="#FFFFFF" points="711.9995,645.334 667.5547,645.334 667.5547,623.1113 711.9995,623.1113 711.9995,645.334 				
					"/>
			</g>
		</g>
		<g>
			<g>
				<polygon fill="#FFFFFF" points="400.8887,712 378.667,712 378.667,667.5557 400.8887,667.5557 400.8887,712 				"/>
			</g>
			<g>
				<polygon fill="#FFFFFF" points="356.4443,645.334 312,645.334 312,623.1113 356.4443,623.1113 356.4443,645.334 				"/>
			</g>
		</g>
	</g>
</g>
</svg>
