<?xml version="1.0" encoding="utf-8"?>
<!-- Generator: Adobe Illustrator 17.1.0, SVG Export Plug-In . SVG Version: 6.00 Build 0)  -->
<!DOCTYPE svg PUBLIC "-//W3C//DTD SVG 1.1//EN" "http://www.w3.org/Graphics/SVG/1.1/DTD/svg11.dtd">
<svg version="1.1" id="copy-image" xmlns="http://www.w3.org/2000/svg" xmlns:xlink="http://www.w3.org/1999/xlink" x="0px" y="0px"
	 viewBox="0 0 1024 1024" enable-background="new 0 0 1024 1024" xml:space="preserve">
<g id="copy-image-copy-image">
	<rect fill="#FFCA70" width="1024" height="1024"/>
	<g id="copy-image-copy-image_1_">
		<g>
			<path fill="#FFFFFF" d="M517.1279,455.5898c-19.7915,0-35.8974-16.0957-35.8974-35.8877
				c0-19.8017,16.1059-35.9072,35.8974-35.9072c19.792,0,35.8975,16.1055,35.8975,35.9072
				C553.0254,439.4941,536.9199,455.5898,517.1279,455.5898L517.1279,455.5898z M517.1279,404.3076
				c-8.4834,0-15.3847,6.9111-15.3847,15.3945c0,8.4737,6.9013,15.375,15.3847,15.375c8.4839,0,15.3843-6.9013,15.3843-15.375
				C532.5122,411.2187,525.6118,404.3076,517.1279,404.3076L517.1279,404.3076z"/>
		</g>
		<g>
			<polygon fill="#FFFFFF" points="647.6318,681.2305 312,681.2305 312,418.1699 376.3628,418.1699 376.3628,438.6826 
				332.5127,438.6826 332.5127,660.7178 627.1187,660.7178 627.1187,595.5635 647.6318,595.5635 647.6318,681.2305 			"/>
		</g>
		<g>
			<path fill="#FFFFFF" d="M712,605.8301H376.3677V342.7695H712V605.8301L712,605.8301z M396.8809,585.3174h294.6059V363.2822
				H396.8809V585.3174L396.8809,585.3174z"/>
		</g>
		<g>
			<g>
				<path fill="#FFFFFF" d="M565.3198,605.9102c-2.6235,0-5.248-1.001-7.2514-3.0049l-114.3077-114.333l-45.9585,45.5527
					c-4.0268,3.9971-10.5122,3.9668-14.5083-0.0596c-3.9863-4.0263-3.9565-10.5166,0.065-14.5039l60.4668-59.9355l128.7461,128.7763
					c4.0063,4.0059,4.0063,10.4971,0,14.503C570.5688,604.9092,567.9443,605.9102,565.3198,605.9102L565.3198,605.9102z"/>
			</g>
			<g>
				<path fill="#FFFFFF" d="M508.1284,548.7188c-2.624,0-5.248-1.001-7.2514-3.0049c-4.0064-4.0059-4.0064-10.4971,0-14.5031
					l135.9326-135.958l71.5996,71.5948c4.0063,4.0058,4.0063,10.497,0,14.5039c-4.0069,4.0058-10.4971,4.0058-14.5034,0
					l-57.0963-57.0918L515.3804,545.7139C513.3774,547.7178,510.7529,548.7188,508.1284,548.7188L508.1284,548.7188z"/>
			</g>
		</g>
	</g>
</g>
</svg>
