<?xml version="1.0" encoding="utf-8"?>
<!-- Generator: Adobe Illustrator 17.1.0, SVG Export Plug-In . SVG Version: 6.00 Build 0)  -->
<!DOCTYPE svg PUBLIC "-//W3C//DTD SVG 1.1//EN" "http://www.w3.org/Graphics/SVG/1.1/DTD/svg11.dtd">
<svg version="1.1" id="crop-tool" xmlns="http://www.w3.org/2000/svg" xmlns:xlink="http://www.w3.org/1999/xlink" x="0px" y="0px"
	 viewBox="0 0 1024 1024" enable-background="new 0 0 1024 1024" xml:space="preserve">
<g id="crop-tool-crop-tool">
	<rect fill="#ED7161" width="1024" height="1024"/>
	<g id="crop-tool-crop-tool_1_">
		<g>
			<path fill="#FFFFFF" d="M413.9941,620.5313c-2.6928,0-5.3862-1.0274-7.4423-3.084c-4.1119-4.1115-4.1119-10.7725,0-14.8839
				l156.8046-156.8047c4.1119-4.1123,10.7735-4.1123,14.8853,0c4.1118,4.1113,4.1118,10.7724,0,14.8838L421.4365,617.4473
				C419.3809,619.5039,416.6875,620.5313,413.9941,620.5313L413.9941,620.5313z"/>
		</g>
		<g>
			<path fill="#FFFFFF" d="M623.0708,411.4551c-2.6934,0-5.3867-1.0283-7.4424-3.084c-4.1113-4.1113-4.1113-10.7725,0-14.8838
				l78.4029-78.4043c4.1118-4.1103,10.7729-4.1103,14.8847,0c4.1118,4.1123,4.1118,10.7744,0,14.8857l-78.4028,78.4024
				C628.457,410.4268,625.7642,411.4551,623.0708,411.4551L623.0708,411.4551z"/>
		</g>
		<g>
			<g>
				<path fill="#FFFFFF" d="M623.0708,620.5313h-52.2715c-5.8135,0-10.5268-4.7081-10.5268-10.5254V463.7266H413.9941
					c-5.8129,0-10.5263-4.708-10.5263-10.5264v-52.2715c0-5.8174,4.7134-10.5254,10.5263-10.5254h209.0767
					c5.813,0,10.5264,4.708,10.5264,10.5254v209.0772C633.5972,615.8232,628.8838,620.5313,623.0708,620.5313L623.0708,620.5313z
					 M581.3252,599.4795h31.2197V411.4551H424.5205v31.2197h146.2788c5.813,0,10.5259,4.708,10.5259,10.5254V599.4795
					L581.3252,599.4795z"/>
			</g>
			<g>
				<path fill="#FFFFFF" d="M361.7222,463.7266h-39.1958c-5.813,0-10.5264-4.708-10.5264-10.5264v-52.2715
					c0-5.8174,4.7134-10.5254,10.5264-10.5254h39.1958c5.813,0,10.5263,4.708,10.5263,10.5254v52.2715
					C372.2485,459.0186,367.5352,463.7266,361.7222,463.7266L361.7222,463.7266z M333.0527,442.6748h18.1436v-31.2197h-18.1436
					V442.6748L333.0527,442.6748z"/>
			</g>
			<g>
				<path fill="#FFFFFF" d="M623.0708,711.999h-52.2715c-5.8135,0-10.5268-4.707-10.5268-10.5255v-39.206
					c0-5.8184,4.7133-10.5264,10.5268-10.5264h52.2715c5.813,0,10.5264,4.708,10.5264,10.5264v39.206
					C633.5972,707.292,628.8838,711.999,623.0708,711.999L623.0708,711.999z M581.3252,690.9473h31.2197V672.793h-31.2197V690.9473
					L581.3252,690.9473z"/>
			</g>
		</g>
		<g>
			<path fill="#FFFFFF" d="M662.2773,672.793H361.7222c-5.813,0-10.5259-4.708-10.5259-10.5255V361.7324
				c0-5.8174,4.7129-10.5254,10.5259-10.5254h52.2719c5.8135,0,10.5264,4.708,10.5264,10.5254v237.7471h237.7568
				c5.8135,0,10.5264,4.708,10.5264,10.5264v52.2617C672.8037,668.085,668.0908,672.793,662.2773,672.793L662.2773,672.793z
				 M372.2485,651.7412H651.751v-31.2099H413.9941c-5.8129,0-10.5263-4.7081-10.5263-10.5254V372.2588h-31.2193V651.7412
				L372.2485,651.7412z"/>
		</g>
	</g>
</g>
</svg>
