<?xml version="1.0" encoding="utf-8"?>
<!-- Generator: Adobe Illustrator 17.1.0, SVG Export Plug-In . SVG Version: 6.00 Build 0)  -->
<!DOCTYPE svg PUBLIC "-//W3C//DTD SVG 1.1//EN" "http://www.w3.org/Graphics/SVG/1.1/DTD/svg11.dtd">
<svg version="1.1" id="drawing-tablet" xmlns="http://www.w3.org/2000/svg" xmlns:xlink="http://www.w3.org/1999/xlink" x="0px"
	 y="0px" viewBox="0 0 1024 1024" enable-background="new 0 0 1024 1024" xml:space="preserve">
<g id="drawing-tablet-drawing-tablet">
	<rect fill="#ED7161" width="1024" height="1024"/>
	<g id="drawing-tablet-drawing-tablet_1_">
		<g>
			<g>
				<polygon fill="#FFFFFF" points="707.689,712 312,712 312,420.4404 548.9634,420.4404 548.9634,441.2656 332.8252,441.2656 
					332.8252,691.1748 686.8628,691.1748 686.8628,441.2656 637.3413,441.2656 637.3413,420.4404 707.689,420.4404 707.689,712 				
					"/>
			</g>
			<g>
				<polygon fill="#FFFFFF" points="669.5151,670.3496 419.6064,670.3496 419.6064,462.0908 507.3066,462.0908 507.3066,482.917 
					440.4316,482.917 440.4316,649.5234 648.689,649.5234 648.689,482.917 595.6895,482.917 595.6895,462.0908 669.5151,462.0908 
					669.5151,670.3496 				"/>
			</g>
			<g>
				<path fill="#FFFFFF" d="M374.4771,587.0459c-11.4859,0-20.8262-9.3457-20.8262-20.8252
					c0-11.4805,9.3403-20.8262,20.8262-20.8262c11.4853,0,20.8251,9.3457,20.8251,20.8262
					C395.3022,577.7002,385.9624,587.0459,374.4771,587.0459L374.4771,587.0459z M374.4868,566.2207
					c-0.0049,0-0.0195,0-0.0195,0.0098l0.0098,10.4023L374.4868,566.2207L374.4868,566.2207z"/>
			</g>
			<g>
				<polygon fill="#FFFFFF" points="384.8901,524.5693 364.064,524.5693 364.064,462.0908 384.8901,462.0908 384.8901,524.5693 				
					"/>
			</g>
			<g>
				<polygon fill="#FFFFFF" points="384.8901,670.3496 364.064,670.3496 364.064,607.8711 384.8901,607.8711 384.8901,670.3496 				
					"/>
			</g>
		</g>
		<g>
			<g>
				<path fill="#FFFFFF" d="M488.9878,535.0215v-60.0967L651.9072,312L712,372.0879L549.0659,535.0117L488.9878,535.0215
					L488.9878,535.0215z M509.8135,483.5479v30.6484l30.6284-0.0098l142.1089-142.0986l-30.6436-30.6387L509.8135,483.5479
					L509.8135,483.5479z"/>
			</g>
			<g>
				<polygon fill="#FFFFFF" points="552.3091,524.2334 499.7876,471.6914 514.5166,456.9668 567.0391,509.5088 552.3091,524.2334 
									"/>
			</g>
			<g>
				<polygon fill="#FFFFFF" points="489.0078,549.6855 474.2939,534.9512 496.5937,512.6816 511.3086,527.416 489.0078,549.6855 
									"/>
			</g>
		</g>
	</g>
</g>
</svg>
