<?xml version="1.0" encoding="utf-8"?>
<!-- Generator: Adobe Illustrator 17.1.0, SVG Export Plug-In . SVG Version: 6.00 Build 0)  -->
<!DOCTYPE svg PUBLIC "-//W3C//DTD SVG 1.1//EN" "http://www.w3.org/Graphics/SVG/1.1/DTD/svg11.dtd">
<svg version="1.1" id="eraser" xmlns="http://www.w3.org/2000/svg" xmlns:xlink="http://www.w3.org/1999/xlink" x="0px" y="0px"
	 viewBox="0 0 1024 1024" enable-background="new 0 0 1024 1024" xml:space="preserve">
<g id="eraser-eraser">
	<rect fill="#FFCA70" width="1024" height="1024"/>
	<g id="eraser-eraser_1_">
		<g>
			<g>
				<path fill="#FFFFFF" d="M515.3843,617.0986h-35.7466c-2.7036,0-5.2993-1.0381-7.2573-2.8984l-65.5371-62.3555
					c-14.1338-14.1953-14.1236-36.9131-0.169-50.8418L585.377,322.2842c13.477-13.4971,37.1503-13.4863,50.6264,0l65.5318,65.5
					c13.9594,14.001,13.9492,36.7187-0.0054,50.6582l-178.77,175.6347C520.7915,616.0195,518.1445,617.0986,515.3843,617.0986
					L515.3843,617.0986z M483.8467,596.0469h27.2309l175.6401-172.5508c5.6841-5.6856,5.6792-15.0606-0.0777-20.8369
					l-65.521-65.4903c-5.5302-5.5302-15.3271-5.5302-20.8574,0L421.5532,515.8877c-5.751,5.7461-5.751,15.1201,0.0054,20.8975
					L483.8467,596.0469L483.8467,596.0469z"/>
			</g>
			<g>
				<polygon fill="#FFFFFF" points="627.0811,498.0215 525.8076,396.748 540.6924,381.8643 641.9653,483.1367 627.0811,498.0215 
									"/>
			</g>
			<g>
				<polygon fill="#FFFFFF" points="540.6206,574.7275 439.3574,473.4746 454.2422,458.5898 555.5054,559.8428 540.6206,574.7275 
									"/>
			</g>
		</g>
		<g>
			<path fill="#FFFFFF" d="M427.7876,617.0986H322.5264c-5.813,0-10.5264-4.7079-10.5264-10.5262
				c0-5.8174,4.7134-10.5255,10.5264-10.5255h105.2612c5.8135,0,10.5269,4.708,10.5269,10.5255
				C438.3145,612.3906,433.6011,617.0986,427.7876,617.0986L427.7876,617.0986z"/>
		</g>
		<g>
			<path fill="#FFFFFF" d="M427.7876,711.834H322.5264c-5.813,0-10.5264-4.707-10.5264-10.5254s4.7134-10.5264,10.5264-10.5264
				h105.2612c5.8135,0,10.5269,4.7079,10.5269,10.5264S433.6011,711.834,427.7876,711.834L427.7876,711.834z"/>
		</g>
		<g>
			<path fill="#FFFFFF" d="M511.9976,664.4668H364.6309c-5.813,0-10.5264-4.708-10.5264-10.5264s4.7134-10.5263,10.5264-10.5263
				h147.3667c5.813,0,10.5258,4.7079,10.5258,10.5263S517.8105,664.4668,511.9976,664.4668L511.9976,664.4668z"/>
		</g>
	</g>
</g>
</svg>
