<?xml version="1.0" encoding="utf-8"?>
<!-- Generator: Adobe Illustrator 17.1.0, SVG Export Plug-In . SVG Version: 6.00 Build 0)  -->
<!DOCTYPE svg PUBLIC "-//W3C//DTD SVG 1.1//EN" "http://www.w3.org/Graphics/SVG/1.1/DTD/svg11.dtd">
<svg version="1.1" id="eye-dropper" xmlns="http://www.w3.org/2000/svg" xmlns:xlink="http://www.w3.org/1999/xlink" x="0px"
	 y="0px" viewBox="0 0 1024 1024" enable-background="new 0 0 1024 1024" xml:space="preserve">
<g id="eye-dropper-eye-dropper">
	<rect fill="#ED7161" width="1024" height="1024"/>
	<g id="eye-dropper-eye-dropper_1_">
		<g>
			<path fill="#FFFFFF" d="M616.3862,479.1465c-4.6406,0-9.0044-1.8194-12.2885-5.1094l-77.6578-77.6523
				c-3.2744-3.2686-5.0781-7.628-5.0883-12.253c-0.0054-4.6464,1.7988-9.0156,5.0781-12.2949l22.1113-22.1015
				c6.5689-6.5684,18.0459-6.5684,24.5684,0.041l3.228,3.2285c4.4248,4.4209,12.1504,4.4209,16.5962-0.0108l29.7031-29.708
				C629.9097,316.0088,639.6079,312,649.9443,312c11.6573,0,22.5537,5.1699,29.9088,14.1953
				c12.3819,15.1318,10.814,38.2402-3.5874,52.6016l-28.7676,28.7929c-2.2255,2.2207-3.4438,5.1504-3.4438,8.2754
				c-0.0049,3.1348,1.2134,6.085,3.4282,8.2959l3.2432,3.2168c6.8003,6.795,6.7949,17.8155,0.0156,24.5889l-22.0908,22.0811
				C625.4175,477.3164,621.0483,479.1465,616.3862,479.1465L616.3862,479.1465z M543.9307,384.1113l72.4506,72.4297l16.8638-16.8476
				l-0.6113-0.6172c-6.2295-6.2188-9.6372-14.4639-9.6323-23.2217c0.0048-8.7471,3.4178-16.9824,9.6167-23.1602l28.7675-28.7929
				c6.8409-6.8155,7.7813-17.5166,2.1587-24.3828c-6.3325-7.7823-19.0068-8.379-26.018-1.3477l-29.7129,29.7187
				c-12.3975,12.3965-33.9741,12.377-46.3614,0l-0.6474-0.6474L543.9307,384.1113L543.9307,384.1113z"/>
		</g>
		<g>
			<polygon fill="#FFFFFF" points="520.8682,536.9385 426.4497,536.9277 426.4497,515.875 520.8682,515.8857 520.8682,536.9385 			
				"/>
		</g>
		<g>
			<path fill="#FFFFFF" d="M406.8364,627.79c-2.6933,0-5.3867-1.0283-7.4424-3.0839l-23.8281-23.8184
				c-1.9736-1.9736-3.084-4.6465-3.084-7.4424s1.1104-5.4687,3.084-7.4424l8.2647-8.2656c6.9184-6.917,12.0732-15.5,14.9106-24.8047
				c3.9937-13.0947,10.9629-24.6914,20.2764-33.9834L541.458,396.5293l14.8853,14.8848L433.8926,533.8447
				c-6.8828,6.8661-12.0274,15.4395-14.8902,24.8047c-3.9628,13.0235-10.9375,24.6201-20.2871,33.9736l-0.8174,0.8223l8.9385,8.9336
				l0.6167-0.6172c9.5034-9.498,21.3096-16.54,34.1387-20.3642c9.5137-2.7852,18.2358-7.9766,25.2773-15.0186L589.084,444.165
				l14.8852,14.8848L481.7544,581.2646c-9.5293,9.5284-21.3511,16.5596-34.1899,20.3223
				c-9.4473,2.8164-18.19,8.0293-25.2315,15.0703l-8.0542,8.0489C412.2227,626.7617,409.5293,627.79,406.8364,627.79
				L406.8364,627.79z"/>
		</g>
		<g>
			<path fill="#FFFFFF" d="M372.4614,712c-20.2148,0-36.6577-16.4463-36.6577-36.6562c0-17.5274,22.5073-40.2754,29.4053-46.834
				l7.2524-6.8975l7.252,6.8975c6.8974,6.5586,29.4048,29.3066,29.4048,46.834C409.1182,695.5537,392.6758,712,372.4614,712
				L372.4614,712z M372.4565,651.2471c-8.3217,9.2324-15.6001,19.6046-15.6001,24.0967c0,8.6035,7.001,15.6035,15.605,15.6035
				c8.6035,0,15.604-7,15.604-15.6035C388.0654,670.9648,380.7725,660.5098,372.4565,651.2471L372.4565,651.2471z"/>
		</g>
	</g>
</g>
</svg>
