<?xml version="1.0" encoding="utf-8"?>
<!-- Generator: Adobe Illustrator 17.1.0, SVG Export Plug-In . SVG Version: 6.00 Build 0)  -->
<!DOCTYPE svg PUBLIC "-//W3C//DTD SVG 1.1//EN" "http://www.w3.org/Graphics/SVG/1.1/DTD/svg11.dtd">
<svg version="1.1" id="grid" xmlns="http://www.w3.org/2000/svg" xmlns:xlink="http://www.w3.org/1999/xlink" x="0px" y="0px"
	 viewBox="0 0 1024 1024" enable-background="new 0 0 1024 1024" xml:space="preserve">
<g id="grid-grid">
	<rect fill="#656872" width="1024" height="1024"/>
	<g id="grid-grid_1_">
		<g>
			<path fill="#FFFFFF" d="M712,712H312V312h400V712L712,712z M333.0527,690.9473h357.8941V333.0527H333.0527V690.9473
				L333.0527,690.9473z"/>
		</g>
		<g>
			<path fill="#FFFFFF" d="M448.8418,712c-5.813,0-10.5259-4.708-10.5259-10.5264V322.5264c0-5.8184,4.7129-10.5264,10.5259-10.5264
				s10.5269,4.708,10.5269,10.5264v378.9472C459.3687,707.292,454.6548,712,448.8418,712L448.8418,712z"/>
		</g>
		<g>
			<path fill="#FFFFFF" d="M701.4736,459.3682H322.5259c-5.8125,0-10.5259-4.7071-10.5259-10.5254
				c0-5.8194,4.7134-10.5274,10.5259-10.5274h378.9477c5.813,0,10.5264,4.708,10.5264,10.5274
				C712,454.6611,707.2866,459.3682,701.4736,459.3682L701.4736,459.3682z"/>
		</g>
		<g>
			<path fill="#FFFFFF" d="M701.4736,585.6846H322.5259c-5.8125,0-10.5259-4.7079-10.5259-10.5273
				c0-5.8183,4.7134-10.5255,10.5259-10.5255h378.9477c5.813,0,10.5264,4.7072,10.5264,10.5255
				C712,580.9766,707.2866,585.6846,701.4736,585.6846L701.4736,585.6846z"/>
		</g>
		<g>
			<path fill="#FFFFFF" d="M575.1582,712c-5.8135,0-10.5269-4.708-10.5269-10.5264V322.5264
				c0-5.8184,4.7134-10.5264,10.5269-10.5264c5.8125,0,10.5264,4.708,10.5264,10.5264v378.9472
				C585.6846,707.292,580.9707,712,575.1582,712L575.1582,712z"/>
		</g>
	</g>
</g>
</svg>
