<?xml version="1.0" encoding="utf-8"?>
<!-- Generator: Adobe Illustrator 17.1.0, SVG Export Plug-In . SVG Version: 6.00 Build 0)  -->
<!DOCTYPE svg PUBLIC "-//W3C//DTD SVG 1.1//EN" "http://www.w3.org/Graphics/SVG/1.1/DTD/svg11.dtd">
<svg version="1.1" id="image" xmlns="http://www.w3.org/2000/svg" xmlns:xlink="http://www.w3.org/1999/xlink" x="0px" y="0px"
	 viewBox="0 0 1024 1024" enable-background="new 0 0 1024 1024" xml:space="preserve">
<g id="image-image">
	<rect fill="#80C2B8" width="1024" height="1024"/>
	<g id="image-image_1_">
		<g>
			<path fill="#FFFFFF" d="M712,712H312V312h400V712L712,712z M333.0527,690.9473h357.8946V333.0527H333.0527V690.9473
				L333.0527,690.9473z"/>
		</g>
		<g>
			<path fill="#FFFFFF" d="M322.521,627.79c-2.4312,0-4.8726-0.8339-6.8613-2.5498c-4.4053-3.7928-4.9034-10.4336-1.1104-14.8437
				l77.292-89.8135c1.8916-2.1992,4.6055-3.5156,7.499-3.6494c2.9351-0.1943,5.7207,0.9365,7.8023,2.9512l66.6069,64.4932
				l117.4082-142.2383c2.0611-2.498,4.9605-3.8964,8.419-3.8242c3.2436,0.0928,6.2656,1.6856,8.1826,4.2969L709.959,581.9629
				c3.4389,4.6885,2.4267,11.2764-2.2612,14.7207c-4.6924,3.4434-11.2769,2.415-14.71-2.2617l-94.2026-128.4541L482.7285,606.5732
				c-1.8657,2.2608-4.5947,3.6377-7.5293,3.8018c-2.9199,0.1553-5.8032-0.9043-7.9106-2.9385l-66.771-64.6601l-70.0142,81.3535
				C328.4214,626.5459,325.4814,627.79,322.521,627.79L322.521,627.79z"/>
		</g>
		<g>
			<path fill="#FFFFFF" d="M459.3687,475.1582c-26.1211,0-47.3692-21.248-47.3692-47.3691
				c0-26.1202,21.2481-47.3672,47.3692-47.3672c26.1201,0,47.3681,21.247,47.3681,47.3672
				C506.7368,453.9102,485.4888,475.1582,459.3687,475.1582L459.3687,475.1582z M459.3687,401.4736
				c-14.5103,0-26.3165,11.8008-26.3165,26.3155c0,14.5146,11.8062,26.3164,26.3165,26.3164
				c14.5092,0,26.3154-11.8018,26.3154-26.3164C485.6841,413.2744,473.8779,401.4736,459.3687,401.4736L459.3687,401.4736z"/>
		</g>
	</g>
</g>
</svg>
