<?xml version="1.0" encoding="utf-8"?>
<!-- Generator: Adobe Illustrator 17.1.0, SVG Export Plug-In . SVG Version: 6.00 Build 0)  -->
<!DOCTYPE svg PUBLIC "-//W3C//DTD SVG 1.1//EN" "http://www.w3.org/Graphics/SVG/1.1/DTD/svg11.dtd">
<svg version="1.1" id="jpg-image" xmlns="http://www.w3.org/2000/svg" xmlns:xlink="http://www.w3.org/1999/xlink" x="0px" y="0px"
	 viewBox="0 0 1024 1024" enable-background="new 0 0 1024 1024" xml:space="preserve">
<g id="jpg-image-jpg-image">
	<rect fill="#80C2B8" width="1024" height="1024"/>
	<g id="jpg-image-jpg-image_1_">
		<g>
			<path fill="#FFFFFF" d="M657.4927,524.5313c-3.084,0-6.1475-1.3467-8.2237-3.9483l-59.9819-74.9697l-62.7417,68.7099
				c-3.9165,4.3076-10.5776,4.6152-14.8691,0.6787c-4.292-3.916-4.5952-10.5781-0.6738-14.8643l71.043-77.8066
				c2.0659-2.2715,4.9136-3.67,8.1157-3.4239c3.0733,0.0928,5.9517,1.542,7.8741,3.9375l67.6703,84.5811
				c3.6342,4.543,2.8994,11.1641-1.644,14.8027C662.1235,523.7803,659.8003,524.5313,657.4927,524.5313L657.4927,524.5313z"/>
		</g>
		<g>
			<path fill="#FFFFFF" d="M366.5176,578.6631c-2.981,0-5.9365-1.2539-8.0235-3.7002c-3.7675-4.4307-3.2334-11.0713,1.1973-14.8438
				l115.1475-97.9961c0.7456-0.6367,1.5727-1.1611,2.4516-1.5625l0,0c0.0108-0.0097,0.0157-0.0097,0.0254-0.0205l0,0
				c0.0108,0,0.0156,0,0.0264-0.0097l0,0c0.0098,0,0.0151,0,0.0254-0.0108l0,0c0.0102,0,0.0156-0.0107,0.0259-0.0107
				c0,0,0.0156-0.0098,0.0253-0.0098h0.0049c0.0059-0.0097,0.0157-0.0097,0.021-0.0097h0.0054
				c0.0098-0.0215,0.0254-0.0108,0.0254-0.0108c0.0102-0.0107,0.0156-0.0107,0.0259-0.0107v-0.0098c0.0102,0,0.0156,0,0.0254-0.0098
				l0,0c0.0107,0,0.0156,0,0.0258-0.0117c0,0,0.0152,0.0117,0.0259-0.0097h0.0049c0.0054,0,0.0308-0.0196,0.0259-0.0098
				c0.0205,0,0.0254-0.0098,0.0254-0.0098c0.0107,0,0.0156-0.0117,0.0263-0.0117l0,0c0.0098,0,0.0147-0.0098,0.0254-0.0098
				c0,0,0.0152-0.0097,0.0254-0.0097h0.0054c0.0102-0.0215,0.0254-0.0108,0.0254-0.0108c0.0107-0.0107,0.0156-0.0107,0.0263-0.0107
				l0,0c0.0098-0.0098,0.0147-0.0098,0.0254-0.0098l0,0c0.0103-0.0097,0.0205-0.0097,0.0254-0.0097l0,0
				c1.2339-0.4942,2.3438-0.669,3.9063-0.7305c0.0107,0,0.0156,0,0.0361,0h0.0049c0.0107,0,0.0156,0,0.0259,0c0,0,0.0102,0,0.0312,0
				c0.0098,0,0.0205,0,0.0303,0c0.0156-0.0098,0.0205-0.0098,0.0312,0c0.0049,0,0.0103,0,0.0103,0c0.0102,0,0.0151,0,0.0254,0
				c0,0,0.0205,0,0.0312,0c0.0098-0.0098,0.0157-0.0098,0.0362,0h0.0049c0.0102,0.0107,0.0205,0.0107,0.0307,0.0107l0,0
				c0.0156,0,0.0308,0,0.041,0c0.0205,0,0.0254,0,0.0362,0c0.0102,0,0.0205,0,0.0307,0c0.0054,0,0.0313,0,0.0313,0
				c0.0097,0,0.0254,0,0.0351,0c0.0108,0,0.021,0,0.0313,0c0.0102,0,0.0205,0.0098,0.0307,0.0098c0.0108,0,0.0205,0,0.0313,0
				c0.0049,0,0.0098,0,0.0098,0c0.0205,0,0.0258,0,0.0258,0c0.0308,0,0.0567,0,0.0874,0.0107l0,0c0.0103,0,0.0152,0,0.0259,0h0.0049
				c0.0103,0,0.0156,0,0.0259,0h0.0049c0.0107,0,0.0156,0,0.0258,0h0.0054c0.0098,0,0.0156,0,0.0254,0l0.0049,0.0098
				c0.0107,0,0.0156,0,0.0259,0h0.0053c0.0103,0,0.0152,0,0.0259,0h0.0049c0.0049,0,0.0156,0,0.0254,0l0,0
				c0.0107,0,0.0205,0.0107,0.0312,0.0107c0.0103,0,0.0254,0,0.0357,0h0.0205c0.0054,0,0.0107,0,0.0107,0
				c0.0098,0,0.0157-0.0107,0.0362,0.0098c0.0097,0,0.0205,0,0.0302,0c0.0103,0,0.0308,0,0.0308,0c0.0107,0,0.0156,0,0.0264,0
				c0,0,0.0205,0.0108,0.0302,0.0108c0.0108,0,0.0157,0,0.0362,0h0.0053c0.0098,0,0.0206,0.0107,0.0303,0.0107l0,0
				c0.0108,0,0.0205,0,0.0313,0c0,0,0,0,0.0049,0c2.7397,0.3486,5.2426,1.7578,6.9594,3.9473l74.2085,94.5107
				c1.5113,1.9219,2.2461,4.2139,2.2461,6.4971c0,3.1133-1.3823,6.1972-4.0244,8.2744c-4.5693,3.6084-11.1841,2.8174-14.7822-1.7783
				l-67.3262-85.7422l-93.2671,82.1748c-1.9224,1.6963-4.2915,2.5605-6.6714,2.6328l-6.9956,5.9512
				C371.354,577.8408,368.9277,578.6631,366.5176,578.6631L366.5176,578.6631z"/>
		</g>
		<g>
			<path fill="#FFFFFF" d="M443.7017,438.7988c-22.8516,0-41.4473-18.5957-41.4473-41.4472
				c0-22.8526,18.5957-41.4483,41.4473-41.4483c22.852,0,41.4477,18.5957,41.4477,41.4483
				C485.1494,420.2031,466.5537,438.7988,443.7017,438.7988L443.7017,438.7988z M443.7017,376.957
				c-11.2456,0-20.3946,9.1485-20.3946,20.3946c0,11.2451,9.149,20.3945,20.3946,20.3945c11.2461,0,20.395-9.1494,20.395-20.3945
				C464.0967,386.1055,454.9478,376.957,443.7017,376.957L443.7017,376.957z"/>
		</g>
		<g>
			<path fill="#FFFFFF" d="M674.1099,712H349.8901V312h324.2198V712L674.1099,712z M370.9424,690.9473h282.1147V333.0527H370.9424
				V690.9473L370.9424,690.9473z"/>
		</g>
		<g>
			<polygon fill="#FFFFFF" points="670.2139,578.6631 350.2085,578.6631 350.2085,557.6113 670.2139,557.6113 670.2139,578.6631 			
				"/>
		</g>
		<g>
			<g>
				<path fill="#FFFFFF" d="M464.5957,644.6182c0,14.123-8.8203,22.2646-22.9341,22.2646c-9.3852,0-16.9717-3.8848-22.8413-10.6074
					l7.771-11.2881c4.7393,4.9336,10.0435,7.4014,13.9292,7.4014c4.4507,0,7.103-2.7549,7.103-8.1514v-30.8896h-22.7382v-13.6524
					h39.7104V644.6182z"/>
			</g>
			<g>
				<path fill="#FFFFFF" d="M507.9756,599.7979c16.9614,0,26.7265,8.3271,26.7265,23.1093c0,15.543-9.7651,24.5479-26.7265,24.5479
					H495.938v18.6679h-16.8692v-66.3251H507.9756z M495.938,634.1934h11.1841c7.3911,0,11.6572-3.7002,11.6572-10.711
					c0-6.9179-4.2661-10.4238-11.6572-10.4238H495.938V634.1934z"/>
			</g>
			<g>
				<path fill="#FFFFFF" d="M604.5215,632.3848v25.8838c-7.1133,5.0166-18.2974,8.6142-27.5801,8.6142
					c-20.189,0-35.4438-14.5967-35.4438-33.9228c0-19.2432,15.6352-33.7373,36.5849-33.7373c9.8477,0,20.2715,3.7939,27.0972,9.8584
					l-9.478,11.4619c-4.8311-4.4512-11.5542-7.1953-17.7222-7.1953c-10.8965,0-19.2329,8.5312-19.2329,19.6123
					c0,11.2773,8.4394,19.7998,19.4282,19.7998c3.4126,0,7.7715-1.2246,11.75-3.2178v-17.1572H604.5215z"/>
			</g>
		</g>
	</g>
</g>
</svg>
