<?xml version="1.0" encoding="utf-8"?>
<!-- Generator: Adobe Illustrator 17.1.0, SVG Export Plug-In . SVG Version: 6.00 Build 0)  -->
<!DOCTYPE svg PUBLIC "-//W3C//DTD SVG 1.1//EN" "http://www.w3.org/Graphics/SVG/1.1/DTD/svg11.dtd">
<svg version="1.1" id="knife-tool" xmlns="http://www.w3.org/2000/svg" xmlns:xlink="http://www.w3.org/1999/xlink" x="0px" y="0px"
	 viewBox="0 0 1024 1024" enable-background="new 0 0 1024 1024" xml:space="preserve">
<g id="knife-tool-knife-tool">
	<rect fill="#FFCA70" width="1024" height="1024"/>
	<g id="knife-tool-knife-tool_1_">
		<g>
			<path fill="#FFFFFF" d="M486.3164,653.0576c-2.6934,0-5.3867-1.0283-7.4429-3.084l-83.9023-83.9033
				c-4.1118-4.1113-4.1118-10.7724,0-14.8838L592.7358,353.416c13.1836-13.1885,30.7256-20.456,49.3941-20.456
				c18.395,0,36.3999,7.4531,49.3984,20.456c13.2041,13.1992,20.4722,30.7471,20.4722,49.4033
				c0,18.6485-7.2681,36.1953-20.4619,49.3838L493.7588,649.9736C491.7026,652.0293,489.0093,653.0576,486.3164,653.0576
				L486.3164,653.0576z M417.2988,558.6279l69.0176,69.0176l190.3369-190.3271c9.2162-9.2198,14.2945-21.4747,14.2945-34.4991
				c0-13.0341-5.0782-25.2968-14.3042-34.5175c-9.0821-9.0772-21.6592-14.2891-34.5137-14.2891
				c-13.0401,0-25.2984,5.0781-34.5088,14.2891L417.2988,558.6279L417.2988,558.6279z"/>
		</g>
		<g>
			<path fill="#FFFFFF" d="M406.4487,691.04h-83.9228c-4.271,0-8.1211-2.58-9.7403-6.537c-1.6186-3.958-0.6884-8.502,2.3599-11.4931
				L416.8667,572.958c4.1479-4.0605,10.8096-4.0195,14.8853,0.124c4.0761,4.1416,4.0244,10.8037-0.1231,14.8839l-83.3882,82.0215
				h54.2246l56.8926-50.2568c4.3638-3.8448,11.0093-3.4445,14.8594,0.915c3.8491,4.3584,3.438,11.0088-0.9199,14.8545
				l-59.8794,52.8984C411.4961,690.1045,409.0137,691.04,406.4487,691.04L406.4487,691.04z"/>
		</g>
		<g>
			<path fill="#FFFFFF" d="M466.3271,563.1514c-2.6928,0-5.3862-1.0284-7.4418-3.084c-4.1124-4.1113-4.1124-10.7725,0-14.8848
				L602.707,401.3604c4.1118-4.1124,10.773-4.1124,14.8848,0c4.1123,4.1113,4.1123,10.7734,0,14.8847L473.77,560.0674
				C471.7139,562.123,469.0205,563.1514,466.3271,563.1514L466.3271,563.1514z"/>
		</g>
	</g>
</g>
</svg>
