<?xml version="1.0" encoding="utf-8"?>
<!-- Generator: Adobe Illustrator 17.1.0, SVG Export Plug-In . SVG Version: 6.00 Build 0)  -->
<!DOCTYPE svg PUBLIC "-//W3C//DTD SVG 1.1//EN" "http://www.w3.org/Graphics/SVG/1.1/DTD/svg11.dtd">
<svg version="1.1" id="magic-wand-tool" xmlns="http://www.w3.org/2000/svg" xmlns:xlink="http://www.w3.org/1999/xlink" x="0px"
	 y="0px" viewBox="0 0 1024 1024" enable-background="new 0 0 1024 1024" xml:space="preserve">
<g id="magic-wand-tool-magic-wand-tool">
	<rect fill="#FFCA70" width="1024" height="1024"/>
	<g id="magic-wand-tool-magic-wand-tool_1_">
		<g>
			<g>
				<path fill="#FFFFFF" d="M322.5264,663.6797c-2.6934,0-5.3863-1-7.4424-3c-4.1118-4-4.1118-10.4805,0-14.4805l215.8403-209.959
					c9.1538-8.8095,24.0801-8.0595,34.0308,1.6202l9.4521,9.1503c0.2827,0.2198,0.5601,0.46,0.8223,0.7198l13.1016,12.75
					c4.1069,4,4.1118,10.4697,0.0102,14.4697c-4.0967,4.0098-10.7578,4.0195-14.8745,0.0303l-23.3809-22.6201
					c-1.9536-1.9004-3.9682-1.92-4.3227-1.5899L329.9687,660.6797C327.9131,662.6797,325.2197,663.6797,322.5264,663.6797
					L322.5264,663.6797z"/>
			</g>
			<g>
				<path fill="#FFFFFF" d="M366.7183,706.5586c-2.6934,0-5.3863-1-7.4424-3c-4.1118-3.9893-4.1118-10.4795-0.0054-14.4795
					l215.7124-209.9687c0.3345-0.5,0.2158-2.4307-1.5781-4.1905L560.3452,462.21c-4.1123-4-4.1123-10.4795,0-14.4795
					c4.1118-4,10.773-4,14.8843,0l13.1016,12.75c5.0781,4.9892,7.936,11.6093,7.874,18.1992
					c-0.0567,5.8008-2.3384,11.1201-6.4248,15L374.166,703.5586C372.1099,705.5586,369.4116,706.5586,366.7183,706.5586
					L366.7183,706.5586z"/>
			</g>
			<g>
				<path fill="none" d="M366.7183,696.3193L366.7183,696.3193L366.7183,696.3193z"/>
			</g>
			<g>
				<line fill="none" x1="366.7183" y1="696.3193" x2="366.7183" y2="696.3193"/>
			</g>
			<g>
				<path fill="#FFFFFF" d="M528.6016,549.0801c-2.6934,0-5.3868-1-7.4429-3l-43.9448-42.75c-4.1118-4-4.1118-10.4805,0-14.4795
					c4.1118-4,10.7729-4,14.8847,0l43.9453,42.749c4.1119,4,4.1119,10.4805,0,14.4805
					C533.9878,548.0801,531.2944,549.0801,528.6016,549.0801L528.6016,549.0801z"/>
			</g>
			<g>
				<path fill="#FFFFFF" d="M366.5947,706.5586c-2.688,0-5.3764-1-7.4321-2.9893l-44.0684-42.7402
					c-4.1171-3.9902-4.1274-10.4697-0.021-14.4795c4.0967-4.0107,10.7579-4.0107,14.8853-0.0205l44.0684,42.7402
					c4.1171,3.9903,4.1274,10.4698,0.0205,14.4796C371.9917,705.5586,369.293,706.5586,366.5947,706.5586L366.5947,706.5586z"/>
			</g>
		</g>
		<g>
			<g>
				<path fill="#FFFFFF" d="M659.3677,407.6904l-40.1465-39.0498l40.1465-39.0595l40.1474,39.0595L659.3677,407.6904
					L659.3677,407.6904z M648.9907,368.6406l10.377,10.0899l10.3779-10.0899l-10.3779-10.0996L648.9907,368.6406L648.9907,368.6406z
					"/>
			</g>
			<g>
				<path fill="#FFFFFF" d="M659.3677,354.3008c-5.8125,0-10.5259-4.5801-10.5259-10.2403v-16.3798
					c0-5.6602,4.7134-10.2393,10.5259-10.2393c5.8135,0,10.5268,4.5791,10.5268,10.2393v16.3798
					C669.8945,349.7207,665.1812,354.3008,659.3677,354.3008L659.3677,354.3008z"/>
			</g>
			<g>
				<path fill="#FFFFFF" d="M634.106,378.8809h-16.8428c-5.8135,0-10.5269-4.5801-10.5269-10.2403
					c0-5.6601,4.7134-10.2402,10.5269-10.2402h16.8428c5.8129,0,10.5268,4.5801,10.5268,10.2402
					C644.6328,374.3008,639.9189,378.8809,634.106,378.8809L634.106,378.8809z"/>
			</g>
			<g>
				<path fill="#FFFFFF" d="M659.3677,419.8408c-5.8125,0-10.5259-4.5801-10.5259-10.2402v-16.3897
					c0-5.6601,4.7134-10.2402,10.5259-10.2402c5.8135,0,10.5268,4.5801,10.5268,10.2402v16.3897
					C669.8945,415.2607,665.1812,419.8408,659.3677,419.8408L659.3677,419.8408z"/>
			</g>
			<g>
				<path fill="#FFFFFF" d="M701.4731,378.8809h-16.8427c-5.8135,0-10.5269-4.5801-10.5269-10.2403
					c0-5.6601,4.7134-10.2402,10.5269-10.2402h16.8427c5.8135,0,10.5269,4.5801,10.5269,10.2402
					C712,374.3008,707.2866,378.8809,701.4731,378.8809L701.4731,378.8809z"/>
			</g>
		</g>
		<g>
			<g>
				<path fill="#FFFFFF" d="M659.3677,602.2598l-40.1465-39.0596l40.1465-39.0606l40.1474,39.0606L659.3677,602.2598
					L659.3677,602.2598z M648.9907,563.2002l10.377,10.0996l10.3779-10.0996l-10.3779-10.1006L648.9907,563.2002L648.9907,563.2002z
					"/>
			</g>
			<g>
				<path fill="#FFFFFF" d="M659.3677,548.8594c-5.8125,0-10.5259-4.5791-10.5259-10.2393v-16.3799
					c0-5.6601,4.7134-10.2402,10.5259-10.2402c5.8135,0,10.5268,4.5801,10.5268,10.2402v16.3799
					C669.8945,544.2803,665.1812,548.8594,659.3677,548.8594L659.3677,548.8594z"/>
			</g>
			<g>
				<path fill="#FFFFFF" d="M634.106,573.4395h-16.8428c-5.8135,0-10.5269-4.5801-10.5269-10.2393
					c0-5.6602,4.7134-10.2402,10.5269-10.2402h16.8428c5.8129,0,10.5268,4.58,10.5268,10.2402
					C644.6328,568.8594,639.9189,573.4395,634.106,573.4395L634.106,573.4395z"/>
			</g>
			<g>
				<path fill="#FFFFFF" d="M659.3677,614.3994c-5.8125,0-10.5259-4.5801-10.5259-10.2402v-16.3799
					c0-5.6592,4.7134-10.2393,10.5259-10.2393c5.8135,0,10.5268,4.5801,10.5268,10.2393v16.3799
					C669.8945,609.8193,665.1812,614.3994,659.3677,614.3994L659.3677,614.3994z"/>
			</g>
			<g>
				<path fill="#FFFFFF" d="M701.4731,573.4395h-16.8427c-5.8135,0-10.5269-4.5801-10.5269-10.2393
					c0-5.6602,4.7134-10.2402,10.5269-10.2402h16.8427c5.8135,0,10.5269,4.58,10.5269,10.2402
					C712,568.8594,707.2866,573.4395,701.4731,573.4395L701.4731,573.4395z"/>
			</g>
		</g>
		<g>
			<g>
				<path fill="#FFFFFF" d="M459.3687,407.6904l-40.1578-39.0498l40.1578-39.0595l40.1464,39.0595L459.3687,407.6904
					L459.3687,407.6904z M448.9912,368.6406l10.3775,10.0899l10.3769-10.0899l-10.3769-10.0996L448.9912,368.6406L448.9912,368.6406
					z"/>
			</g>
			<g>
				<path fill="#FFFFFF" d="M459.3687,354.3008c-5.8135,0-10.5269-4.5801-10.5269-10.2403v-16.3798
					c0-5.6602,4.7134-10.2393,10.5269-10.2393c5.8129,0,10.5258,4.5791,10.5258,10.2393v16.3798
					C469.8945,349.7207,465.1816,354.3008,459.3687,354.3008L459.3687,354.3008z"/>
			</g>
			<g>
				<path fill="#FFFFFF" d="M434.1011,378.8809h-16.8379c-5.8135,0-10.5269-4.5801-10.5269-10.2403
					c0-5.6601,4.7134-10.2402,10.5269-10.2402h16.8379c5.813,0,10.5259,4.5801,10.5259,10.2402
					C444.627,374.3008,439.9141,378.8809,434.1011,378.8809L434.1011,378.8809z"/>
			</g>
			<g>
				<path fill="#FFFFFF" d="M459.3687,419.8408c-5.8135,0-10.5269-4.5801-10.5269-10.2402v-16.3897
					c0-5.6601,4.7134-10.2402,10.5269-10.2402c5.8129,0,10.5258,4.5801,10.5258,10.2402v16.3897
					C469.8945,415.2607,465.1816,419.8408,459.3687,419.8408L459.3687,419.8408z"/>
			</g>
			<g>
				<path fill="#FFFFFF" d="M501.4736,378.8809h-16.8432c-5.813,0-10.5264-4.5801-10.5264-10.2403
					c0-5.6601,4.7134-10.2402,10.5264-10.2402h16.8432c5.813,0,10.5264,4.5801,10.5264,10.2402
					C512,374.3008,507.2866,378.8809,501.4736,378.8809L501.4736,378.8809z"/>
			</g>
		</g>
	</g>
</g>
</svg>
