<?xml version="1.0" encoding="utf-8"?>
<!-- Generator: Adobe Illustrator 17.1.0, SVG Export Plug-In . SVG Version: 6.00 Build 0)  -->
<!DOCTYPE svg PUBLIC "-//W3C//DTD SVG 1.1//EN" "http://www.w3.org/Graphics/SVG/1.1/DTD/svg11.dtd">
<svg version="1.1" id="marker-pen" xmlns="http://www.w3.org/2000/svg" xmlns:xlink="http://www.w3.org/1999/xlink" x="0px" y="0px"
	 viewBox="0 0 1024 1024" enable-background="new 0 0 1024 1024" xml:space="preserve">
<g id="marker-pen-marker-pen">
	<rect fill="#80C2B8" width="1024" height="1024"/>
	<g id="marker-pen-marker-pen_1_">
		<g>
			<polygon fill="#FFFFFF" points="516.7686,599.8799 424.041,507.1484 438.9258,492.2627 531.6533,584.9961 516.7686,599.8799 			
				"/>
		</g>
		<g>
			<path fill="#FFFFFF" d="M322.5298,712c-2.6934,0-5.3921-1.0283-7.4424-3.084c-4.1118-4.1103-4.1118-10.7724,0-14.8847
				l44.3975-44.377c4.1118-4.1123,10.7837-4.1123,14.8847,0c4.1118,4.1123,4.1118,10.7734,0,14.8857l-44.3974,44.376
				C327.9165,710.9717,325.2231,712,322.5298,712L322.5298,712z"/>
		</g>
		<g>
			<path fill="#FFFFFF" d="M403.9082,689.8066c-2.6934,0-5.3862-1.0283-7.4424-3.0839l-59.1699-59.17
				c-4.1113-4.1113-4.1113-10.7724-0.0049-14.8838l51.7735-51.8203c4.1118-4.1122,10.7783-4.1122,14.8901,0
				c4.1118,4.1016,4.1118,10.7735,0.0054,14.8858l-44.336,44.377l44.2891,44.2842l44.3569-44.3154
				c4.1118-4.1113,10.7783-4.1113,14.8902,0c4.1064,4.1123,4.1064,10.7842-0.0054,14.8847l-51.8037,51.7579
				C409.2949,688.7783,406.6016,689.8066,403.9082,689.8066L403.9082,689.8066z"/>
		</g>
		<g>
			<path fill="#FFFFFF" d="M477.9014,645.4297L477.9014,645.4297c-2.7915,0-5.4693-1.1104-7.4429-3.084L381.6733,553.54
				c-4.1118-4.1113-4.1118-10.7734,0-14.8847l221.9322-221.917c2.1689-2.169,6.0135-4.7383,12.058-4.7383
				c25.7402,0,82.3349,57.3496,93.6426,84.6006c5.2783,12.7158,1.809,19.9736-2.0357,23.8291l-221.9268,221.916
				C483.3701,644.3193,480.6924,645.4297,477.9014,645.4297L477.9014,645.4297z M404.001,546.0977l73.9004,73.9199
				l212.9321-212.9219c-2.8423-16.7656-57.1035-71.042-73.8901-73.9297L404.001,546.0977L404.001,546.0977z"/>
		</g>
	</g>
</g>
</svg>
