<?xml version="1.0" encoding="utf-8"?>
<!-- Generator: Adobe Illustrator 17.1.0, SVG Export Plug-In . SVG Version: 6.00 Build 0)  -->
<!DOCTYPE svg PUBLIC "-//W3C//DTD SVG 1.1//EN" "http://www.w3.org/Graphics/SVG/1.1/DTD/svg11.dtd">
<svg version="1.1" id="mobile-design" xmlns="http://www.w3.org/2000/svg" xmlns:xlink="http://www.w3.org/1999/xlink" x="0px"
	 y="0px" viewBox="0 0 1024 1024" enable-background="new 0 0 1024 1024" xml:space="preserve">
<g id="mobile-design-mobile-design">
	<g id="mobile-design-mobile-design_1_">
		<g>
			<g>
				<path fill="#f1c300" d="M547.02,712H376.9746c-19.8652,0-36.0298-15.8096-36.0298-35.2383V347.2383
					c0-19.4287,16.1646-35.2383,36.0298-35.2383H547.02c19.8657,0,36.0303,15.8096,36.0303,35.2383v93.4629H561.998v-93.4629
					c0-7.8233-6.7177-14.1856-14.978-14.1856H376.9746c-8.2598,0-14.9775,6.3623-14.9775,14.1856v329.5234
					c0,7.8233,6.7177,14.1856,14.9775,14.1856H547.02c8.2603,0,14.978-6.3623,14.978-14.1856V516.502h21.0523v160.2598
					C583.0503,696.1904,566.8857,712,547.02,712L547.02,712z"/>
			</g>
			<g>
				<path fill="#f1c300" d="M561.998,385.6836H361.9971c-5.8135,0-10.5269-4.707-10.5269-10.5254
					c0-5.8193,4.7134-10.5273,10.5269-10.5273H561.998c5.8125,0,10.5254,4.708,10.5254,10.5273
					C572.5234,380.9766,567.8105,385.6836,561.998,385.6836L561.998,385.6836z"/>
			</g>
			<g>
				<path fill="#f1c300" d="M561.998,638.3164H361.9971c-5.8135,0-10.5269-4.708-10.5269-10.5264
					c0-5.8183,4.7134-10.5263,10.5269-10.5263H561.998c5.8125,0,10.5254,4.708,10.5254,10.5263
					C572.5234,633.6084,567.8105,638.3164,561.998,638.3164L561.998,638.3164z"/>
			</g>
			<g>
				<polygon fill="#f1c300" points="483.0503,675.1582 440.9448,675.1582 440.9448,654.1055 483.0503,654.1055 483.0503,675.1582 
									"/>
			</g>
		</g>
		<g>
			<g>
				<path fill="#f1c300" d="M570.2109,530.2568l-52.7758-52.7763l102.1801-102.1787c6.7697-6.7842,16.3907-10.6709,26.3931-10.6709
					c10.0015,0,19.6187,3.8964,26.3931,10.6806c6.7636,6.7539,10.6538,16.376,10.6538,26.3672
					c0,9.9922-3.8848,19.6143-10.6592,26.3984L570.2109,530.2568L570.2109,530.2568z M547.2051,477.4805l23.0058,23.0058
					l87.295-87.2939c2.853-2.8574,4.4969-7.0518,4.4969-11.5137c0-4.4512-1.6391-8.6348-4.4922-11.4922
					c-5.7202-5.7256-17.2846-5.706-23.0058,0L547.2051,477.4805L547.2051,477.4805z"/>
			</g>
			<g>
				<path fill="#f1c300" d="M491.8291,586.4658C491.8291,586.4658,491.834,586.4658,491.8291,586.4658
					c-18.8276,0-37.1714-7.5459-50.3242-20.7031l-17.9585-17.9697h25.4062c10.937,0,10.937-4.4406,10.937-5.8994
					c0-10.2598,1.501-23.5303,13.1993-35.2296c9.0258-8.212,20.2358-12.5508,31.9179-12.5508l0,0
					c11.873,0,22.8726,4.4512,30.9727,12.5508c8.4297,8.4395,13.1167,20.0665,12.8545,31.9083
					c-0.2569,11.873-5.3965,22.9961-14.4575,31.3017C523.8037,580.4619,508.5747,586.4658,491.8291,586.4658L491.8291,586.4658z
					 M472.123,561.4141c6.1729,2.6005,12.8907,3.999,19.7061,3.999c11.1221,0,21.0625-3.8135,27.9912-10.7422
					c6.4707-5.9521,7.8745-12.2539,7.9668-16.5615c0.1333-6.126-2.3081-12.1709-6.6973-16.5596
					c-8.3569-8.3467-24.0547-8.2031-33.481,0.3496c-5.4683,5.4893-6.6655,12.0059-6.6655,19.9942
					C480.9434,549.0576,478.1211,556.2637,472.123,561.4141L472.123,561.4141z"/>
			</g>
		</g>
	</g>
</g>
</svg>
