<?xml version="1.0" encoding="utf-8"?>
<!-- Generator: Adobe Illustrator 17.1.0, SVG Export Plug-In . SVG Version: 6.00 Build 0)  -->
<!DOCTYPE svg PUBLIC "-//W3C//DTD SVG 1.1//EN" "http://www.w3.org/Graphics/SVG/1.1/DTD/svg11.dtd">
<svg version="1.1" id="pen" xmlns="http://www.w3.org/2000/svg" xmlns:xlink="http://www.w3.org/1999/xlink" x="0px" y="0px"
	 viewBox="0 0 1024 1024" enable-background="new 0 0 1024 1024" xml:space="preserve">
<g id="pen-pen">
	<rect fill="#656872" width="1024" height="1024"/>
	<g id="pen-pen_1_">
		<g>
			<path fill="#FFFFFF" d="M312,712l29.9814-89.9248L652.0518,312L712,371.9434L401.9297,682.0283L312,712L312,712z
				 M359.9131,633.1543l-15.4771,46.4092l46.4151-15.4668l292.1386-292.1533l-30.9379-30.9327L359.9131,633.1543L359.9131,633.1543z
				"/>
		</g>
		<g>
			<polygon fill="#FFFFFF" points="647.7139,415.8887 575.7598,343.9365 513.6934,405.9922 499.188,391.4873 575.7598,314.9248 
				662.2188,401.3848 647.7139,415.8887 			"/>
		</g>
		<g>
			<path fill="#FFFFFF" d="M397.5679,680.876c-2.6245,0-5.2495-1.002-7.253-3.0049l-33.9082-33.918
				c-4.0068-4.0078-4.0068-10.499,0-14.5058c4.0069-4.0069,10.4976-4.0069,14.5049,0l33.9092,33.9178
				c4.0068,4.0069,4.0068,10.4981,0,14.5059C402.8169,679.874,400.1924,680.876,397.5679,680.876L397.5679,680.876z"/>
		</g>
	</g>
</g>
</svg>
