<?xml version="1.0" encoding="utf-8"?>
<!-- Generator: Adobe Illustrator 17.1.0, SVG Export Plug-In . SVG Version: 6.00 Build 0)  -->
<!DOCTYPE svg PUBLIC "-//W3C//DTD SVG 1.1//EN" "http://www.w3.org/Graphics/SVG/1.1/DTD/svg11.dtd">
<svg version="1.1" id="printer" xmlns="http://www.w3.org/2000/svg" xmlns:xlink="http://www.w3.org/1999/xlink" x="0px" y="0px"
	 viewBox="0 0 1024 1024" enable-background="new 0 0 1024 1024" xml:space="preserve">
<g id="printer-printer">
	<g id="printer-printer_1_">
		<g>
			<polygon fill="#f1c300" points="638.3159,418.3115 617.2632,418.3115 617.2632,334.1006 406.7363,334.1006 406.7363,418.3115 
				385.6841,418.3115 385.6841,313.0488 638.3159,313.0488 638.3159,418.3115 			"/>
		</g>
		<g>
			<polygon fill="#f1c300" points="712,616.2148 625.6919,616.2148 625.6919,595.1621 690.9473,595.1621 690.9473,426.7412 
				333.0527,426.7412 333.0527,595.1621 398.3125,595.1621 398.3125,616.2148 312,616.2148 312,405.6875 712,405.6875 712,616.2148 
							"/>
		</g>
		<g>
			<path fill="#f1c300" d="M638.3159,710.9512H385.6841V500.4258h252.6318V710.9512L638.3159,710.9512z M406.7363,689.8994h210.5269
				V521.4775H406.7363V689.8994L406.7363,689.8994z"/>
		</g>
		<g>
			<g>
				<path fill="#f1c300" d="M514.1787,662.1455c-0.0049,0-0.0049,0-0.0049,0c-0.9043,0-1.8193-0.0322-2.7344-0.0732
					c-28.2329-1.5421-57.5913-23.7365-55.7974-56.9287c1.5312-28.2481,23.5762-57.2784,56.9229-55.7979
					c31.1729,1.6856,54.1172,24.6309,55.793,55.7979c0.0205,0.3798,0.0205,0.7509,0,1.1308
					C566.9185,633.1455,545.7993,662.1455,514.1787,662.1455L514.1787,662.1455z M509.7949,570.3262
					c-19.2588,0-32.1904,18.6679-33.1318,35.9482c-1.0581,19.5723,17.7124,33.7783,35.9072,34.7754l1.6035,0.041
					c19.0894,0,31.96-18.2558,33.1265-35.3828c-1.3369-20.3828-15.3633-34.2305-35.8662-35.3301L509.7949,570.3262
					L509.7949,570.3262z"/>
			</g>
			<g>
				<polygon fill="#f1c300" points="522.5259,679.374 501.4736,679.374 501.4736,532.0039 522.5259,532.0039 522.5259,679.374 				
					"/>
			</g>
			<g>
				<polygon fill="#f1c300" points="585.6846,616.2148 438.3154,616.2148 438.3154,595.1621 585.6846,595.1621 585.6846,616.2148 
									"/>
			</g>
		</g>
		<g>
			<polygon fill="#f1c300" points="659.3682,468.8467 596.2104,468.8467 596.2104,447.793 659.3682,447.793 659.3682,468.8467 			
				"/>
		</g>
	</g>
</g>
</svg>
