<?xml version="1.0" encoding="utf-8"?>
<!-- Generator: Adobe Illustrator 17.1.0, SVG Export Plug-In . SVG Version: 6.00 Build 0)  -->
<!DOCTYPE svg PUBLIC "-//W3C//DTD SVG 1.1//EN" "http://www.w3.org/Graphics/SVG/1.1/DTD/svg11.dtd">
<svg version="1.1" id="ruler" xmlns="http://www.w3.org/2000/svg" xmlns:xlink="http://www.w3.org/1999/xlink" x="0px" y="0px"
	 viewBox="0 0 1024 1024" enable-background="new 0 0 1024 1024" xml:space="preserve">
<g id="ruler-ruler">
	<rect fill="#FFCA70" width="1024" height="1024"/>
	<g id="ruler-ruler_1_">
		<g>
			<path fill="#FFFFFF" d="M411.0767,712.0049L312,612.9082l300.9126-300.9131L712,411.0918L411.0767,712.0049L411.0767,712.0049z
				 M341.1353,612.9082l69.9414,69.9609l271.7876-271.7773l-69.9517-69.9609L341.1353,612.9082L341.1353,612.9082z"/>
		</g>
		<g>
			<g>
				<polygon fill="#FFFFFF" points="396.8867,626.5498 356.7041,586.3477 371.2822,571.7803 411.4644,611.9824 396.8867,626.5498 
									"/>
			</g>
			<g>
				<polygon fill="#FFFFFF" points="414.6382,573.3701 392.1626,550.8838 406.7305,536.3164 429.2061,558.8018 414.6382,573.3701 
									"/>
			</g>
			<g>
				<polygon fill="#FFFFFF" points="467.8135,555.6221 427.6313,515.4102 442.2095,500.8428 482.3911,541.0547 467.8135,555.6221 
									"/>
			</g>
			<g>
				<polygon fill="#FFFFFF" points="485.5908,502.4326 463.0903,479.957 477.6528,465.3887 500.1538,487.8643 485.5908,502.4326 
									"/>
			</g>
			<g>
				<polygon fill="#FFFFFF" points="538.7559,484.665 498.564,444.5029 513.1318,429.9355 553.3237,470.0977 538.7559,484.665 				
					"/>
			</g>
			<g>
				<polygon fill="#FFFFFF" points="556.5132,431.5146 534.0176,409.0195 548.5854,394.4512 571.0811,416.9473 556.5132,431.5146 
									"/>
			</g>
			<g>
				<polygon fill="#FFFFFF" points="609.6934,413.7275 569.4912,373.5459 584.0591,358.9775 624.2612,399.1602 609.6934,413.7275 
									"/>
			</g>
		</g>
	</g>
</g>
</svg>
