<?xml version="1.0" encoding="utf-8"?>
<!-- Generator: Adobe Illustrator 17.1.0, SVG Export Plug-In . SVG Version: 6.00 Build 0)  -->
<!DOCTYPE svg PUBLIC "-//W3C//DTD SVG 1.1//EN" "http://www.w3.org/Graphics/SVG/1.1/DTD/svg11.dtd">
<svg version="1.1" id="spray-paint" xmlns="http://www.w3.org/2000/svg" xmlns:xlink="http://www.w3.org/1999/xlink" x="0px"
	 y="0px" viewBox="0 0 1024 1024" enable-background="new 0 0 1024 1024" xml:space="preserve">
<g id="spray-paint-spray-paint">
	<rect fill="#80C2B8" width="1024" height="1024"/>
	<g id="spray-paint-spray-paint_1_">
		<g>
			<g>
				<polygon fill="#FFFFFF" points="670.8999,412.6143 607.748,412.6143 607.748,392.3174 670.8999,392.3174 670.8999,412.6143 				
					"/>
			</g>
			<g>
				<polygon fill="#FFFFFF" points="597.6987,381.0986 583.3477,366.748 638.0952,312 652.4458,326.3516 597.6987,381.0986 				"/>
			</g>
			<g>
				<polygon fill="#FFFFFF" points="638.0952,492.9326 583.3477,438.1846 597.6987,423.834 652.4458,478.5811 638.0952,492.9326 
									"/>
			</g>
		</g>
		<g>
			<g>
				<g>
					<path fill="#FFFFFF" d="M535.7764,712H363.249c-5.605,0-10.1489-4.5381-10.1489-10.1484v-233.42
						c0-5.6084,4.5439-10.1474,10.1489-10.1474h172.5274c5.6039,0,10.1479,4.539,10.1479,10.1474v233.42
						C545.9243,707.4619,541.3804,712,535.7764,712L535.7764,712z M373.397,691.7031h152.2304v-213.122H373.397V691.7031
						L373.397,691.7031z"/>
				</g>
				<g>
					<path fill="#FFFFFF" d="M535.7764,476.8857c-5.605,0-10.149-4.539-10.149-10.1484c0-33.5781-30.6298-60.8916-68.2753-60.8916
						h-15.6797c-37.6455,0-68.2754,27.3135-68.2754,60.8916c0,5.6094-4.544,10.1484-10.148,10.1484
						c-5.605,0-10.1489-4.539-10.1489-10.1484c0-44.7666,39.7324-81.1885,88.5723-81.1885h15.6797
						c48.8398,0,88.5722,36.4219,88.5722,81.1885C545.9243,472.3467,541.3804,476.8857,535.7764,476.8857L535.7764,476.8857z"/>
				</g>
				<g>
					<path fill="#FFFFFF" d="M534.0815,661.2568H432.5942c-5.604,0-10.1479-4.539-10.1479-10.1484V519.166
						c0-5.6094,4.5439-10.1494,10.1479-10.1494h101.4873c5.604,0,10.148,4.54,10.148,10.1494s-4.544,10.1485-10.148,10.1485
						h-91.3383V640.96h91.3383c5.604,0,10.148,4.538,10.148,10.1484C544.2295,656.7178,539.6855,661.2568,534.0815,661.2568
						L534.0815,661.2568z"/>
				</g>
				<g>
					<g>
						<polygon fill="#FFFFFF" points="532.3916,612.1982 464.7358,612.1982 464.7358,591.9014 532.3916,591.9014 532.3916,612.1982 
													"/>
					</g>
					<g>
						<polygon fill="#FFFFFF" points="532.3916,578.373 491.7969,578.373 491.7969,558.0762 532.3916,558.0762 532.3916,578.373 
													"/>
					</g>
				</g>
			</g>
			<g>
				<polygon fill="#FFFFFF" points="485.0327,397.3916 464.7358,397.3916 464.7358,346.6484 434.2886,346.6484 434.2886,397.3916 
					413.9917,397.3916 413.9917,326.3516 485.0327,326.3516 485.0327,397.3916 				"/>
			</g>
		</g>
	</g>
</g>
</svg>
