<?xml version="1.0" encoding="utf-8"?>
<!-- Generator: Adobe Illustrator 17.1.0, SVG Export Plug-In . SVG Version: 6.00 Build 0)  -->
<!DOCTYPE svg PUBLIC "-//W3C//DTD SVG 1.1//EN" "http://www.w3.org/Graphics/SVG/1.1/DTD/svg11.dtd">
<svg version="1.1" id="text-tool" xmlns="http://www.w3.org/2000/svg" xmlns:xlink="http://www.w3.org/1999/xlink" x="0px" y="0px"
	 viewBox="0 0 1024 1024" enable-background="new 0 0 1024 1024" xml:space="preserve">
<g id="text-tool-text-tool">
	<rect fill="#656872" width="1024" height="1024"/>
	<g id="text-tool-text-tool_1_">
		<g>
			<path fill="#FFFFFF" d="M596.6733,712H427.3369v-51.3154l7.5093-2.252c22.435-6.7226,41.2729-18.0205,41.9155-22.9033V376.5352
				h-61.8833l-43.4829,38.8984H312V312h400v103.4336h-59.3955l-43.4727-38.8984h-61.8935v259.0351
				c0.6426,4.8418,19.4902,16.1397,41.9253,22.8623l7.5039,2.252L596.6733,712L596.6733,712z M448.3896,690.9473h127.231v-14.751
				c-19.105-6.5166-49.4351-20.1172-49.4351-40.626V355.4834h90.9903l43.4721,38.8965h30.2994v-61.3272H333.0527v61.3272h30.3037
				l43.483-38.8965h90.9746v280.0869c0,20.5088-30.3247,34.1094-49.4244,40.626V690.9473L448.3896,690.9473z"/>
		</g>
	</g>
</g>
</svg>
