<?xml version="1.0" encoding="utf-8"?>
<!-- Generator: Adobe Illustrator 17.1.0, SVG Export Plug-In . SVG Version: 6.00 Build 0)  -->
<!DOCTYPE svg PUBLIC "-//W3C//DTD SVG 1.1//EN" "http://www.w3.org/Graphics/SVG/1.1/DTD/svg11.dtd">
<svg version="1.1" id="vector-direct-selection" xmlns="http://www.w3.org/2000/svg" xmlns:xlink="http://www.w3.org/1999/xlink"
	 x="0px" y="0px" viewBox="0 0 1024 1024" enable-background="new 0 0 1024 1024" xml:space="preserve">
<g id="vector-direct-selection-vector-direct-selection">
	<rect fill="#656872" width="1024" height="1024"/>
	<g id="vector-direct-selection-vector-direct-selection_1_">
		<g>
			<path fill="#FFFFFF" d="M661.4756,577.2617h-21.0527v-12.6328c0-58.5742-37.5103-108.3066-93.3384-123.7461l5.6123-20.292
				c65.0649,18,108.7788,75.8848,108.7788,144.0381V577.2617L661.4756,577.2617z"/>
		</g>
		<g>
			<path fill="#FFFFFF" d="M383.5767,577.2617h-21.0528v-12.6328c0-66.7051,44.7061-125.9258,108.7222-144.0176l5.7256,20.251
				c-54.9903,15.5537-93.395,66.4365-93.395,123.7666V577.2617L383.5767,577.2617z"/>
		</g>
		<g>
			<polygon fill="#FFFFFF" points="484.6353,423.582 387.7915,423.582 387.7915,402.5293 484.6353,402.5293 484.6353,423.582 			"/>
		</g>
		<g>
			<polygon fill="#FFFFFF" points="636.208,423.582 539.3643,423.582 539.3643,402.5293 636.208,402.5293 636.208,423.582 			"/>
		</g>
		<g>
			<path fill="#FFFFFF" d="M360.417,461.4727c-26.6963,0-48.417-21.7207-48.417-48.417c0-26.7061,21.7207-48.4268,48.417-48.4268
				c26.7012,0,48.4272,21.7207,48.4272,48.4268C408.8442,439.752,387.1182,461.4727,360.417,461.4727L360.417,461.4727z
				 M360.417,385.6807c-15.0903,0-27.3643,12.2841-27.3643,27.375c0,15.0908,12.274,27.3642,27.3643,27.3642
				c15.0957,0,27.3745-12.2734,27.3745-27.3642C387.7915,397.9648,375.5127,385.6807,360.417,385.6807L360.417,385.6807z"/>
		</g>
		<g>
			<path fill="#FFFFFF" d="M663.5825,461.4727c-26.7007,0-48.4272-21.7207-48.4272-48.417
				c0-26.7061,21.7265-48.4268,48.4272-48.4268c26.6968,0,48.4175,21.7207,48.4175,48.4268
				C712,439.752,690.2793,461.4727,663.5825,461.4727L663.5825,461.4727z M663.5825,385.6807
				c-15.0957,0-27.3745,12.2841-27.3745,27.375c0,15.0908,12.2788,27.3642,27.3745,27.3642
				c15.0908,0,27.3647-12.2734,27.3647-27.3642C690.9473,397.9648,678.6733,385.6807,663.5825,385.6807L663.5825,385.6807z"/>
		</g>
		<g>
			<path fill="#FFFFFF" d="M559.3682,460.4238h-94.7369v-94.7363h94.7369V460.4238L559.3682,460.4238z M485.6841,439.3721h52.6313
				v-52.6319h-52.6313V439.3721L485.6841,439.3721z"/>
		</g>
		<g>
			<path fill="#FFFFFF" d="M459.3579,659.3652c-2.7397,0-5.438-1.0693-7.4477-3.0937c-3.0064-3.0127-3.9063-7.5352-2.2769-11.4619
				l52.6523-126.9844c1.6294-3.9365,5.4683-6.4971,9.7246-6.4971l0,0c4.2559,0,8.0952,2.5605,9.7241,6.4971l52.6318,126.9844
				c1.6294,3.9268,0.7295,8.4599-2.2768,11.4717c-3.0123,3.0117-7.5352,3.916-11.462,2.2919l-48.6171-20.0654l-48.6382,20.0654
				C462.0718,659.1084,460.7095,659.3652,459.3579,659.3652L459.3579,659.3652z M512.0103,549.3428l-33.2085,80.088l29.1943-12.0469
				c2.5747-1.0488,5.4634-1.0488,8.0283,0l29.1787,12.0469L512.0103,549.3428L512.0103,549.3428z"/>
		</g>
	</g>
</g>
</svg>
