<?xml version="1.0" encoding="utf-8"?>
<!-- Generator: Adobe Illustrator 17.1.0, SVG Export Plug-In . SVG Version: 6.00 Build 0)  -->
<!DOCTYPE svg PUBLIC "-//W3C//DTD SVG 1.1//EN" "http://www.w3.org/Graphics/SVG/1.1/DTD/svg11.dtd">
<svg version="1.1" id="vector" xmlns="http://www.w3.org/2000/svg" xmlns:xlink="http://www.w3.org/1999/xlink" x="0px" y="0px"
	 viewBox="0 0 1024 1024" enable-background="new 0 0 1024 1024" xml:space="preserve">
<g id="vector-vector">
	<rect fill="#ED7161" width="1024" height="1024"/>
	<g id="vector-vector_1_">
		<g>
			<path fill="#FFFFFF" d="M661.4756,575.1572h-21.0527v-12.6339c0-58.5722-37.5103-108.3056-93.3384-123.7451l5.6123-20.292
				c65.0649,17.9991,108.7788,75.8838,108.7788,144.0371V575.1572L661.4756,575.1572z"/>
		</g>
		<g>
			<path fill="#FFFFFF" d="M383.5767,575.1572h-21.0528v-12.6339c0-66.7041,44.7061-125.9238,108.7222-144.0156l5.7256,20.25
				c-54.9903,15.5527-93.395,66.4365-93.395,123.7656V575.1572L383.5767,575.1572z"/>
		</g>
		<g>
			<polygon fill="#FFFFFF" points="484.6353,421.4775 387.7915,421.4775 387.7915,400.4258 484.6353,400.4258 484.6353,421.4775 			
				"/>
		</g>
		<g>
			<polygon fill="#FFFFFF" points="636.208,421.4775 539.3643,421.4775 539.3643,400.4258 636.208,400.4258 636.208,421.4775 			"/>
		</g>
		<g>
			<path fill="#FFFFFF" d="M360.417,459.3682c-26.6963,0-48.417-21.7207-48.417-48.417c0-26.7061,21.7207-48.4268,48.417-48.4268
				c26.7012,0,48.4272,21.7207,48.4272,48.4268C408.8442,437.6475,387.1182,459.3682,360.417,459.3682L360.417,459.3682z
				 M360.417,383.5762c-15.0903,0-27.3643,12.2851-27.3643,27.375c0,15.0908,12.274,27.3642,27.3643,27.3642
				c15.0957,0,27.3745-12.2734,27.3745-27.3642C387.7915,395.8613,375.5127,383.5762,360.417,383.5762L360.417,383.5762z"/>
		</g>
		<g>
			<path fill="#FFFFFF" d="M663.5825,459.3682c-26.7007,0-48.4272-21.7207-48.4272-48.417
				c0-26.7061,21.7265-48.4268,48.4272-48.4268c26.6968,0,48.4175,21.7207,48.4175,48.4268
				C712,437.6475,690.2793,459.3682,663.5825,459.3682L663.5825,459.3682z M663.5825,383.5762
				c-15.0957,0-27.3745,12.2851-27.3745,27.375c0,15.0908,12.2788,27.3642,27.3745,27.3642
				c15.0908,0,27.3647-12.2734,27.3647-27.3642C690.9473,395.8613,678.6733,383.5762,663.5825,383.5762L663.5825,383.5762z"/>
		</g>
		<g>
			<path fill="#FFFFFF" d="M559.3682,458.3203h-94.7369V363.583h94.7369V458.3203L559.3682,458.3203z M485.6841,437.2676h52.6313
				v-52.6319h-52.6313V437.2676L485.6841,437.2676z"/>
		</g>
		<g>
			<path fill="#FFFFFF" d="M421.478,661.4756h-96.8447v-96.8438h96.8447V661.4756L421.478,661.4756z M345.686,640.4238h54.7393
				v-54.7393H345.686V640.4238L345.686,640.4238z"/>
		</g>
		<g>
			<path fill="#FFFFFF" d="M699.3662,661.4756H602.522v-96.8438h96.8442V661.4756L699.3662,661.4756z M623.5742,640.4238h54.7393
				v-54.7393h-54.7393V640.4238L623.5742,640.4238z"/>
		</g>
	</g>
</g>
</svg>
