<?xml version="1.0" encoding="utf-8"?>
<!-- Generator: Adobe Illustrator 17.1.0, SVG Export Plug-In . SVG Version: 6.00 Build 0)  -->
<!DOCTYPE svg PUBLIC "-//W3C//DTD SVG 1.1//EN" "http://www.w3.org/Graphics/SVG/1.1/DTD/svg11.dtd">
<svg version="1.1" id="web-design" xmlns="http://www.w3.org/2000/svg" xmlns:xlink="http://www.w3.org/1999/xlink" x="0px" y="0px"
	 viewBox="0 0 1024 1024" enable-background="new 0 0 1024 1024" style="width:100px;height:100px;">
<g id="web-design-web-design">
	<g id="web-design-web-design_1_">
		<g>
			<g>
				<polygon fill="#f1c700" points="539.7549,712 518.7021,712 518.7021,644.0518 539.7549,644.0518 539.7549,712 				"/>
			</g>
			<g>
				<polygon fill="#f1c700" points="470.8506,712 449.7979,712 449.7979,644.0518 470.8506,644.0518 470.8506,712 				"/>
			</g>
			<g>
				<polygon fill="#f1c700" points="585.6841,712 403.874,712 403.874,690.9473 585.6841,690.9473 585.6841,712 				"/>
			</g>
			<g>
				<path fill="#f1c700" d="M644.0518,654.5781H345.4961c-18.4673,0-33.4961-15.0293-33.4961-33.4912V379.9277
					c0-18.4629,15.0288-33.4804,33.4961-33.4804h280.1963V367.5H345.4961c-6.8613,0-12.4434,5.5713-12.4434,12.4277v241.1592
					c0,6.8565,5.5821,12.4385,12.4434,12.4385h298.5557c6.8618,0,12.4487-5.582,12.4487-12.4385V398.3174h21.0527v222.7695
					C677.5532,639.5488,662.5239,654.5781,644.0518,654.5781L644.0518,654.5781z"/>
			</g>
			<g>
				<polygon fill="#f1c700" points="677.5532,604.8252 312,604.8252 312,583.7715 677.5532,583.7715 677.5532,604.8252 				"/>
			</g>
		</g>
		<g>
			<g>
				<path fill="#f1c700" d="M589.8579,490.3613l-56.2192-56.2187l110.7934-110.794c7.211-7.2158,17.46-11.3486,28.1148-11.3486
					c10.6552,0,20.9038,4.1328,28.1094,11.3486C707.8623,330.5547,712,340.8037,712,351.4639
					c0,10.6494-4.1377,20.8984-11.3486,28.1045L589.8579,490.3613L589.8579,490.3613z M563.4082,434.1426l26.4497,26.4492
					l95.9082-95.9092c3.2949-3.29,5.1812-8.1103,5.1812-13.2187c0-5.1202-1.8863-9.9405-5.1812-13.2305
					c-6.5991-6.5889-19.8701-6.5889-26.4487,0L563.4082,434.1426L563.4082,434.1426z"/>
			</g>
			<g>
				<path fill="#f1c700" d="M504.3418,552.0811L504.3418,552.0811c-20.2871,0-40.0444-8.1221-54.2095-22.2979l-17.9531-17.9678
					h25.4004c8.5527,0,12.8857-2.4873,12.8857-7.4014c0-11.0098,1.6035-25.2471,14.1192-37.7569
					c9.6367-8.7793,21.6382-13.416,34.1435-13.416c12.7002,0,24.4604,4.7608,33.1158,13.416
					c9.0102,9.0244,14.0161,21.4522,13.7387,34.1172c-0.2827,12.6855-5.772,24.5576-15.4653,33.4502
					C538.7319,545.625,522.3569,552.0811,504.3418,552.0811L504.3418,552.0811z M481.1714,526.0215
					c7.2012,3.2578,15.1265,5.0058,23.1704,5.0058c12.3921,0,23.4785-4.2656,31.2139-12.0058
					c7.2832-6.6924,8.8715-13.8369,8.9795-18.7197c0.1538-6.9483-2.6114-13.7852-7.5816-18.7598
					c-9.4673-9.4785-27.1997-9.335-37.8491,0.3486c-6.2349,6.25-7.5864,13.5694-7.5864,22.5235
					C491.5181,512.0098,488.542,520.3477,481.1714,526.0215L481.1714,526.0215z"/>
			</g>
		</g>
	</g>
</g>
</svg>
